<svg xmlns="http://www.w3.org/2000/svg" width="325.956" height="41" viewBox="0 0 325.956 41"><g transform="translate(-101 -3262)"><g transform="translate(101 3262)"><rect width="42.708" height="41" rx="5" fill="#3863ba"/><path d="M24.526,13.885a8.1,8.1,0,0,0-1.83,1.227,8.1,8.1,0,0,0-8.885-1.27A2.7,2.7,0,0,0,9.2,15.754v16.96a2.7,2.7,0,1,0,5.4,0V21.15a2.7,2.7,0,1,1,5.4,0V32.715a2.7,2.7,0,1,0,5.4,0h5.4a2.7,2.7,0,1,0,5.4,0V21.15a8.1,8.1,0,0,0-4.527-7.265" transform="translate(-1.342 -1.903)" fill="#fff"/><path d="M27.03,12.431a3.662,3.662,0,1,1,3.662,3.663,3.662,3.662,0,0,1-3.662-3.663Zm.964,8.095a2.7,2.7,0,1,1,5.4,0V32.09a2.7,2.7,0,0,1-5.4,0Z" transform="translate(-3.942 -1.279)" fill="#0f1559"/><rect width="42.708" height="41" rx="5" fill="#355fbc"/><path d="M24.526,13.885a8.1,8.1,0,0,0-1.83,1.227,8.1,8.1,0,0,0-8.885-1.27A2.7,2.7,0,0,0,9.2,15.754v16.96a2.7,2.7,0,1,0,5.4,0V21.15a2.7,2.7,0,1,1,5.4,0V32.715a2.7,2.7,0,1,0,5.4,0h5.4a2.7,2.7,0,1,0,5.4,0V21.15a8.1,8.1,0,0,0-4.527-7.265" transform="translate(-1.342 -1.903)" fill="#fff"/><path d="M30.656,34.966a2.915,2.915,0,0,1-2.912-2.913V20.49a2.912,2.912,0,0,1,5.824,0V32.055a2.915,2.915,0,0,1-2.913,2.912Zm0-18.7A3.875,3.875,0,1,1,34.532,12.4a3.875,3.875,0,0,1-3.875,3.875Z" transform="translate(-3.906 -1.243)" fill="#190f56"/><path d="M30.62,8.7a3.662,3.662,0,1,1-3.662,3.662A3.662,3.662,0,0,1,30.62,8.7m0,9.058a2.7,2.7,0,0,1,2.7,2.7V32.017a2.7,2.7,0,0,1-5.4,0V20.453a2.7,2.7,0,0,1,2.7-2.7m0-9.486a4.089,4.089,0,1,0,4.089,4.089A4.089,4.089,0,0,0,30.62,8.269Zm0,9.058a3.129,3.129,0,0,0-3.126,3.126V32.017a3.126,3.126,0,0,0,6.252,0V20.453a3.129,3.129,0,0,0-3.126-3.125Z" transform="translate(-3.869 -1.206)" fill="#fff"/><path d="M56.867,35.068l3.347-20.5,3.935.01,5.069,12.283,5.139-12.255,3.935.012,3.232,20.516-4.735-.013L75.2,22.882,70.026,35.105l-1.66-.005-5.1-12.251L61.6,35.081ZM86.478,13.013a2.559,2.559,0,1,1-1.835.744,2.582,2.582,0,0,1,1.835-.744Zm2.191,8.431-.038,13.713L84.2,35.144l.038-13.713Zm8.53,6.265-5.424-6.257,5.657.015,2.543,3.175,2.561-3.16,5.657.015-5.459,6.227,6.681,7.489L103.7,35.2l-3.738-4.437-3.764,4.416-5.719-.015Z" transform="translate(-8.293 -1.898)" fill="#355fbc"/><path d="M122.844,13.1a2.559,2.559,0,1,1-1.835.744,2.582,2.582,0,0,1,1.835-.744Zm2.19,8.431L125,35.245l-4.427-.012.038-13.713Z" transform="translate(-17.537 -1.911)" fill="#190f56"/><path d="M144.7,35.257l-4.428-.013.005-1.66a4.876,4.876,0,0,1-4.341,2.11,6.154,6.154,0,0,1-4.7-1.889,7.683,7.683,0,0,1-2.137-5.509,7.327,7.327,0,0,1,2.168-5.405,6.9,6.9,0,0,1,4.77-1.831,5.116,5.116,0,0,1,4.268,2.01l.028-10.238,4.428.013Zm-9.966-9.467a3.53,3.53,0,0,0-1.083,2.609,3.47,3.47,0,0,0,1.069,2.524,3.4,3.4,0,0,0,2.3.959,3.78,3.78,0,0,0,2.524-1.006,3.337,3.337,0,0,0,1.022-2.457,3.535,3.535,0,0,0-.977-2.525,3.254,3.254,0,0,0-2.488-1.021,3.218,3.218,0,0,0-2.369.917Zm26.926,3.425-10.238-.028a3.746,3.746,0,0,0,.823,2.339,2.97,2.97,0,0,0,2.272.867A3.63,3.63,0,0,0,156.305,32a2.683,2.683,0,0,0,.957-1.134l4.179.442a6.131,6.131,0,0,1-2.653,3.435,8.144,8.144,0,0,1-4.339,1,7.1,7.1,0,0,1-5.467-1.983,7.363,7.363,0,0,1-2.045-5.295,7.807,7.807,0,0,1,2.105-5.405,8.114,8.114,0,0,1,10.7.122,7.823,7.823,0,0,1,1.922,5.57Zm-4.081-2.655a3.494,3.494,0,0,0-.888-1.6,3.252,3.252,0,0,0-4.335.111,3.087,3.087,0,0,0-.773,1.473Zm17.325-4.933,4.428.012L179.3,35.353l-4.428-.013,0-1.66a4.569,4.569,0,0,1-4.064,2.11,6.5,6.5,0,0,1-5.128-2.1,7.257,7.257,0,0,1-1.984-5.14,7.812,7.812,0,0,1,2.137-5.528,6.608,6.608,0,0,1,4.771-1.862,5.144,5.144,0,0,1,4.3,2.01Zm-5.637,4.32a3.422,3.422,0,0,0-1.022,2.487,3.542,3.542,0,0,0,.915,2.463,3.638,3.638,0,0,0,2.611,1.083,3.279,3.279,0,0,0,2.308-.947,3.638,3.638,0,0,0,.077-5.1,3.708,3.708,0,0,0-2.458-.96,3.488,3.488,0,0,0-2.431.977Z" transform="translate(-18.827 -1.871)" fill="#355fbc"/></g><text transform="translate(269.956 3296)" fill="#190f56" font-size="26" font-family="NotoSansJP-Black, Noto Sans JP" font-weight="800" letter-spacing="0.03em"><tspan x="0" y="0">community</tspan></text></g></svg>