<svg data-name="mixidea_logotype" xmlns="http://www.w3.org/2000/svg" viewBox="0 0 187.911 48"><rect width="50" height="48" rx="5" fill="#3863ba"/><path d="M27.142 14.027A9.477 9.477 0 0 0 25 15.463a9.477 9.477 0 0 0-10.402-1.487 3.159 3.159 0 0 0-5.393 2.24v19.856a3.159 3.159 0 1 0 6.318 0V22.533a3.159 3.159 0 0 1 6.318 0v13.539a3.159 3.159 0 1 0 6.318 0h6.318a3.159 3.159 0 0 0 6.318 0V22.533a9.477 9.477 0 0 0-5.301-8.506" fill="#fff"/><path d="M27.03 13.056a4.287 4.287 0 1 1 4.288 4.288 4.287 4.287 0 0 1-4.287-4.288zm1.129 9.477a3.159 3.159 0 1 1 6.318 0v13.539a3.159 3.159 0 1 1-6.318 0z" fill="#0f1559"/><rect width="50" height="48" rx="5" fill="#355fbc"/><path d="M27.142 14.027A9.477 9.477 0 0 0 25 15.463a9.477 9.477 0 0 0-10.402-1.487 3.159 3.159 0 0 0-5.393 2.24v19.856a3.159 3.159 0 1 0 6.318 0V22.533a3.159 3.159 0 0 1 6.318 0v13.539a3.159 3.159 0 1 0 6.318 0h6.318a3.159 3.159 0 0 0 6.318 0V22.533a9.477 9.477 0 0 0-5.301-8.506" fill="#fff"/><path d="M31.318 39.481a3.413 3.413 0 0 1-3.409-3.41V22.534a3.409 3.409 0 0 1 6.818 0v13.539a3.413 3.413 0 0 1-3.41 3.409zm0-21.887a4.537 4.537 0 1 1 4.537-4.537 4.542 4.542 0 0 1-4.537 4.537z" fill="#190f56"/><path d="M31.318 8.77a4.287 4.287 0 1 1-4.287 4.286 4.287 4.287 0 0 1 4.287-4.287m0 10.605a3.159 3.159 0 0 1 3.159 3.16v13.538a3.159 3.159 0 0 1-6.318 0V22.533a3.159 3.159 0 0 1 3.159-3.159m0-11.105a4.787 4.787 0 1 0 4.787 4.787 4.793 4.793 0 0 0-4.787-4.787zm0 10.605a3.663 3.663 0 0 0-3.66 3.66v13.538a3.659 3.659 0 0 0 7.319 0V22.533a3.663 3.663 0 0 0-3.66-3.659z" fill="#fff"/><path d="M56.867 38.834l3.919-23.998 4.607.012 5.935 14.38 6.016-14.347 4.607.014 3.784 24.019-5.543-.015-1.867-14.332-6.052 14.31-1.943-.006-5.972-14.343-1.947 14.321zM91.534 13.013a3.023 3.023 0 1 1-3.032 3.015 2.996 2.996 0 0 1 3.032-3.015zm2.565 9.87l-.045 16.054-5.184-.015.045-16.054zM104.085 30.218l-6.35-7.325 6.623.018 2.977 3.717 2.998-3.7 6.623.018-6.391 7.29 7.822 8.768-6.695-.018-4.376-5.195-4.407 5.17-6.695-.018z" fill="#355fbc"/><path d="M123.286 13.102a3.023 3.023 0 1 1-3.032 3.015 2.996 2.996 0 0 1 3.032-3.015zm2.564 9.87l-.045 16.053-5.183-.014.045-16.054z" fill="#190f56"/><path d="M147.367 39.086l-5.184-.015.006-1.944a5.708 5.708 0 0 1-5.082 2.47 7.205 7.205 0 0 1-5.501-2.212 8.995 8.995 0 0 1-2.502-6.45 8.578 8.578 0 0 1 2.538-6.328 8.08 8.08 0 0 1 5.584-2.144 5.99 5.99 0 0 1 4.997 2.353l.033-11.986 5.184.015zm-11.668-11.083a4.133 4.133 0 0 0-1.268 3.055 4.063 4.063 0 0 0 1.251 2.955 3.975 3.975 0 0 0 2.697 1.123 4.425 4.425 0 0 0 2.955-1.178 3.907 3.907 0 0 0 1.196-2.877 4.139 4.139 0 0 0-1.144-2.956 3.809 3.809 0 0 0-2.913-1.195 3.768 3.768 0 0 0-2.774 1.073zM167.222 32.013l-11.986-.033a4.385 4.385 0 0 0 .964 2.738 3.477 3.477 0 0 0 2.66 1.015 4.25 4.25 0 0 0 2.09-.462 3.141 3.141 0 0 0 1.12-1.328l4.893.518a7.178 7.178 0 0 1-3.106 4.022 9.534 9.534 0 0 1-5.08 1.174 8.31 8.31 0 0 1-6.4-2.321 8.62 8.62 0 0 1-2.394-6.199 9.14 9.14 0 0 1 2.465-6.328 9.499 9.499 0 0 1 12.526.143 9.158 9.158 0 0 1 2.25 6.521zm-4.778-3.108a4.091 4.091 0 0 0-1.04-1.875 3.807 3.807 0 0 0-5.075.13 3.614 3.614 0 0 0-.905 1.725zM182.727 23.13l5.184.014-.045 16.054-5.184-.015.005-1.943a5.349 5.349 0 0 1-4.758 2.47 7.608 7.608 0 0 1-6.004-2.464 8.496 8.496 0 0 1-2.323-6.018 9.146 9.146 0 0 1 2.502-6.472 7.736 7.736 0 0 1 5.585-2.18 6.022 6.022 0 0 1 5.033 2.353zm-6.6 5.057a4.006 4.006 0 0 0-1.197 2.912 4.147 4.147 0 0 0 1.071 2.883 4.259 4.259 0 0 0 3.057 1.268 3.839 3.839 0 0 0 2.702-1.109 4.259 4.259 0 0 0 .09-5.974 4.341 4.341 0 0 0-2.878-1.124 4.083 4.083 0 0 0-2.846 1.144z" fill="#355fbc"/></svg>