<svg xmlns="http://www.w3.org/2000/svg" width="287.012" height="46.838" viewBox="0 0 287.012 46.838"><g transform="translate(-315 -3345.805)"><g transform="translate(315 3345.805)"><rect width="48.789" height="46.838" rx="5" fill="#3863ba"/><path d="M26.708,14a9.248,9.248,0,0,0-2.09,1.4,9.248,9.248,0,0,0-10.15-1.451A3.083,3.083,0,0,0,9.2,16.139V35.515a3.083,3.083,0,1,0,6.165,0V22.3a3.083,3.083,0,1,1,6.165,0V35.515a3.083,3.083,0,1,0,6.165,0h6.165a3.083,3.083,0,1,0,6.165,0V22.3A9.247,9.247,0,0,0,34.859,14" transform="translate(-0.223 -0.316)" fill="#fff"/><path d="M27.03,12.952a4.183,4.183,0,1,1,4.184,4.184,4.183,4.183,0,0,1-4.184-4.184Zm1.1,9.248a3.083,3.083,0,1,1,6.165,0V35.411a3.083,3.083,0,1,1-6.165,0Z" transform="translate(-0.654 -0.212)" fill="#0f1559"/><rect width="48.789" height="46.838" rx="5" fill="#355fbc"/><path d="M26.708,14a9.248,9.248,0,0,0-2.09,1.4,9.248,9.248,0,0,0-10.15-1.451A3.083,3.083,0,0,0,9.2,16.139V35.515a3.083,3.083,0,1,0,6.165,0V22.3a3.083,3.083,0,1,1,6.165,0V35.515a3.083,3.083,0,1,0,6.165,0h6.165a3.083,3.083,0,1,0,6.165,0V22.3A9.247,9.247,0,0,0,34.859,14" transform="translate(-0.223 -0.316)" fill="#fff"/><path d="M31.208,38.731A3.33,3.33,0,0,1,27.882,35.4V22.195a3.326,3.326,0,1,1,6.653,0V35.406a3.33,3.33,0,0,1-3.327,3.326Zm0-21.357a4.427,4.427,0,1,1,4.427-4.427,4.427,4.427,0,0,1-4.427,4.427Z" transform="translate(-0.648 -0.206)" fill="#190f56"/><path d="M31.2,8.758a4.183,4.183,0,1,1-4.183,4.183A4.183,4.183,0,0,1,31.2,8.758m0,10.348a3.083,3.083,0,0,1,3.083,3.083V35.4a3.083,3.083,0,0,1-6.165,0V22.188A3.083,3.083,0,0,1,31.2,19.105m0-10.836a4.671,4.671,0,1,0,4.671,4.671A4.671,4.671,0,0,0,31.2,8.269Zm0,10.348a3.574,3.574,0,0,0-3.571,3.571V35.4a3.571,3.571,0,0,0,7.142,0V22.188a3.574,3.574,0,0,0-3.571-3.57Z" transform="translate(-0.642 -0.2)" fill="#fff"/><path d="M56.867,38.209l3.824-23.417,4.5.012,5.791,14.032,5.87-14,4.5.014,3.692,23.437-5.409-.015L77.805,24.287,71.9,38.251,70,38.245l-5.827-14-1.9,13.974Zm33.828-25.2a2.923,2.923,0,1,1-2.1.85A2.95,2.95,0,0,1,90.695,13.013Zm2.5,9.631-.044,15.665L88.1,38.295l.044-15.665Zm9.744,7.157-6.2-7.148,6.463.018,2.9,3.627,2.925-3.61,6.463.018-6.236,7.113,7.633,8.556-6.533-.018-4.27-5.069-4.3,5.045-6.533-.018Z" transform="translate(-1.377 -0.315)" fill="#355fbc"/><path d="M123.213,13.1a2.923,2.923,0,1,1-2.1.85,2.95,2.95,0,0,1,2.1-.85Zm2.5,9.631L125.671,38.4l-5.057-.014.044-15.665Z" transform="translate(-2.912 -0.317)" fill="#190f56"/><path d="M146.925,38.45l-5.059-.015.006-1.9a5.57,5.57,0,0,1-4.959,2.41,7.031,7.031,0,0,1-5.368-2.158A8.777,8.777,0,0,1,129.1,30.5a8.37,8.37,0,0,1,2.477-6.175,7.884,7.884,0,0,1,5.449-2.092,5.845,5.845,0,0,1,4.876,2.3l.032-11.7,5.058.015ZM135.539,27.636a4.033,4.033,0,0,0-1.237,2.981,3.965,3.965,0,0,0,1.221,2.883,3.879,3.879,0,0,0,2.632,1.1,4.318,4.318,0,0,0,2.883-1.149,3.812,3.812,0,0,0,1.167-2.807,4.039,4.039,0,0,0-1.116-2.884,3.717,3.717,0,0,0-2.842-1.166,3.677,3.677,0,0,0-2.707,1.047Zm30.76,3.913-11.7-.032a4.279,4.279,0,0,0,.941,2.672,3.393,3.393,0,0,0,2.6.99,4.147,4.147,0,0,0,2.039-.451,3.065,3.065,0,0,0,1.093-1.3l4.775.505a7,7,0,0,1-3.031,3.925,9.3,9.3,0,0,1-4.957,1.146,8.109,8.109,0,0,1-6.245-2.265,8.411,8.411,0,0,1-2.336-6.049,8.919,8.919,0,0,1,2.405-6.175,9.269,9.269,0,0,1,12.223.14,8.936,8.936,0,0,1,2.2,6.363Zm-4.662-3.033a3.992,3.992,0,0,0-1.015-1.83,3.715,3.715,0,0,0-4.952.127,3.526,3.526,0,0,0-.883,1.683Zm19.792-5.635,5.058.014-.044,15.665-5.058-.015,0-1.9a5.219,5.219,0,0,1-4.643,2.41,7.424,7.424,0,0,1-5.859-2.4,8.29,8.29,0,0,1-2.267-5.872,8.924,8.924,0,0,1,2.441-6.315,7.549,7.549,0,0,1,5.45-2.127,5.876,5.876,0,0,1,4.911,2.3Zm-6.44,4.935a3.909,3.909,0,0,0-1.168,2.841,4.047,4.047,0,0,0,1.045,2.813,4.156,4.156,0,0,0,2.983,1.237,3.746,3.746,0,0,0,2.637-1.082,4.156,4.156,0,0,0,.088-5.829,4.236,4.236,0,0,0-2.808-1.1,3.984,3.984,0,0,0-2.777,1.116Z" transform="translate(-3.126 -0.311)" fill="#355fbc"/></g><text transform="translate(508.012 3382.374)" fill="#190f56" font-size="28" font-family="NotoSansJP-Black, Noto Sans JP" font-weight="800" letter-spacing="0.03em"><tspan x="0" y="0">online</tspan></text></g></svg>